HIERARCHY
ROOT Hips
{
	OFFSET 0.000000 87.230942 0.000000
	CHANNELS 6 Xposition Yposition Zposition Xrotation Yrotation Zrotation
	JOINT Pelvis
	{
		OFFSET 0.000000 0.000000 0.000000
		CHANNELS 3 Xrotation Yrotation Zrotation
		JOINT LeftUpLeg
		{
			OFFSET 12.017000 -9.376404 -2.439400
			CHANNELS 3 Xrotation Yrotation Zrotation
			JOINT LeftLeg
			{
				OFFSET -0.007312 -32.846973 2.110600
				CHANNELS 3 Xrotation Yrotation Zrotation
				JOINT LeftFoot
				{
					OFFSET 0.007312 -32.065170 -0.570400
					CHANNELS 3 Xrotation Yrotation Zrotation
					JOINT LeftToeBase
					{
						OFFSET 0.728300 -11.045900 13.180700
						CHANNELS 3 Xrotation Yrotation Zrotation
						End Site
						{
							OFFSET 0.000000 17.212589 0.000000
						}
					}
				}
				JOINT LeftPantLeg
				{
					OFFSET 0.002788 -16.709013 -3.143600
					CHANNELS 3 Xrotation Yrotation Zrotation
					End Site
					{
						OFFSET -0.605125 24.528742 0.000000
					}
				}
			}
			JOINT Left_Butt
			{
				OFFSET -6.630234 1.326584 -3.183700
				CHANNELS 3 Xrotation Yrotation Zrotation
				End Site
				{
					OFFSET -0.498041 20.188049 0.000000
				}
			}
		}
		JOINT RightUpLeg
		{
			OFFSET -11.717000 -9.376404 -2.439400
			CHANNELS 3 Xrotation Yrotation Zrotation
			JOINT RightLeg
			{
				OFFSET -0.003241 -32.846912 2.110600
				CHANNELS 3 Xrotation Yrotation Zrotation
				JOINT RightFoot
				{
					OFFSET 0.003241 -32.065136 -0.570500
					CHANNELS 3 Xrotation Yrotation Zrotation
					JOINT RightToeBase
					{
						OFFSET -0.728300 -11.045901 13.180700
						CHANNELS 3 Xrotation Yrotation Zrotation
						End Site
						{
							OFFSET 0.000000 17.212593 0.000000
						}
					}
				}
				JOINT RightPantLeg
				{
					OFFSET 0.008142 -16.708982 -3.143700
					CHANNELS 3 Xrotation Yrotation Zrotation
					End Site
					{
						OFFSET 0.605088 24.528715 0.000000
					}
				}
			}
			JOINT Right_Butt
			{
				OFFSET 6.630732 1.326584 -3.183700
				CHANNELS 3 Xrotation Yrotation Zrotation
				End Site
				{
					OFFSET 0.498015 20.188240 0.000000
				}
			}
		}
	}
	JOINT Spine
	{
		OFFSET -0.062400 7.848404 3.918300
		CHANNELS 3 Xrotation Yrotation Zrotation
		JOINT Spine1
		{
			OFFSET -0.072800 11.422302 0.713400
			CHANNELS 3 Xrotation Yrotation Zrotation
			JOINT Spine2
			{
				OFFSET -0.083200 13.054001 -1.931600
				CHANNELS 3 Xrotation Yrotation Zrotation
				JOINT Neck
				{
					OFFSET -0.092200 14.121796 -5.138800
					CHANNELS 3 Xrotation Yrotation Zrotation
					JOINT Head
					{
						OFFSET 0.000200 10.447403 -0.842000
						CHANNELS 3 Xrotation Yrotation Zrotation
						JOINT Visor
						{
							OFFSET 0.457100 25.671204 16.550400
							CHANNELS 3 Xrotation Yrotation Zrotation
							End Site
							{
								OFFSET 0.000000 26.061493 0.000000
							}
						}
						JOINT HairMidA
						{
							OFFSET 0.459400 31.585403 8.437400
							CHANNELS 3 Xrotation Yrotation Zrotation
							End Site
							{
								OFFSET 0.000000 26.061493 0.000000
							}
						}
						JOINT HairMidB
						{
							OFFSET 0.464000 33.309204 -8.389700
							CHANNELS 3 Xrotation Yrotation Zrotation
							End Site
							{
								OFFSET 0.000000 26.061493 0.000000
							}
						}
						JOINT HairMidC
						{
							OFFSET 0.466600 27.991196 -17.375099
							CHANNELS 3 Xrotation Yrotation Zrotation
							End Site
							{
								OFFSET 0.000000 26.061493 0.000000
							}
						}
						JOINT HairMidD
						{
							OFFSET 0.467700 17.888092 -21.169500
							CHANNELS 3 Xrotation Yrotation Zrotation
							End Site
							{
								OFFSET 0.000000 26.061493 0.000000
							}
						}
						JOINT HairMidE
						{
							OFFSET 5.325700 3.514603 -14.369699
							CHANNELS 3 Xrotation Yrotation Zrotation
							End Site
							{
								OFFSET 0.000000 26.061493 0.000000
							}
						}
						JOINT HairMidF
						{
							OFFSET -4.394100 3.514603 -14.372400
							CHANNELS 3 Xrotation Yrotation Zrotation
							End Site
							{
								OFFSET 0.000000 26.061493 0.000000
							}
						}
						JOINT HairLeftA
						{
							OFFSET 15.319900 25.746506 2.623300
							CHANNELS 3 Xrotation Yrotation Zrotation
							End Site
							{
								OFFSET 0.000000 26.061493 0.000000
							}
						}
						JOINT HairLeftB
						{
							OFFSET 12.619500 29.289398 -8.731499
							CHANNELS 3 Xrotation Yrotation Zrotation
							End Site
							{
								OFFSET 0.000000 26.061493 0.000000
							}
						}
						JOINT HairLeftC
						{
							OFFSET 15.714800 15.959900 2.909800
							CHANNELS 3 Xrotation Yrotation Zrotation
							End Site
							{
								OFFSET 0.000000 26.061493 0.000000
							}
						}
						JOINT HairLeftD
						{
							OFFSET 16.101700 18.437408 -7.553200
							CHANNELS 3 Xrotation Yrotation Zrotation
							End Site
							{
								OFFSET 0.000000 26.061493 0.000000
							}
						}
						JOINT HairLeftE
						{
							OFFSET 9.731900 17.915009 -18.316799
							CHANNELS 3 Xrotation Yrotation Zrotation
							End Site
							{
								OFFSET 0.000000 26.061493 0.000000
							}
						}
						JOINT HairLeftF
						{
							OFFSET 11.204300 4.953598 -9.668100
							CHANNELS 3 Xrotation Yrotation Zrotation
							End Site
							{
								OFFSET 0.000000 26.061493 0.000000
							}
						}
						JOINT HairRightA
						{
							OFFSET -14.397900 25.746307 2.615100
							CHANNELS 3 Xrotation Yrotation Zrotation
							End Site
							{
								OFFSET 0.000000 26.061493 0.000000
							}
						}
						JOINT HairRightB
						{
							OFFSET -11.691200 29.289200 -8.738199
							CHANNELS 3 Xrotation Yrotation Zrotation
							End Site
							{
								OFFSET 0.000000 26.061493 0.000000
							}
						}
						JOINT HairRightC
						{
							OFFSET -14.792900 15.959702 2.901400
							CHANNELS 3 Xrotation Yrotation Zrotation
							End Site
							{
								OFFSET 0.000000 26.061493 0.000000
							}
						}
						JOINT HairRightD
						{
							OFFSET -15.174000 18.437195 -7.561900
							CHANNELS 3 Xrotation Yrotation Zrotation
							End Site
							{
								OFFSET 0.000000 26.061493 0.000000
							}
						}
						JOINT HairRightE
						{
							OFFSET -8.798200 17.914902 -18.322001
							CHANNELS 3 Xrotation Yrotation Zrotation
							End Site
							{
								OFFSET 0.000000 26.061493 0.000000
							}
						}
						JOINT HairRightF
						{
							OFFSET -10.275200 4.953506 -9.674099
							CHANNELS 3 Xrotation Yrotation Zrotation
							End Site
							{
								OFFSET 0.000000 26.061493 0.000000
							}
						}
					}
				}
				JOINT LeftShoulder
				{
					OFFSET 5.133500 7.341202 -1.867600
					CHANNELS 3 Xrotation Yrotation Zrotation
					JOINT LeftArm
					{
						OFFSET 8.072663 0.936867 -2.176600
						CHANNELS 3 Xrotation Yrotation Zrotation
						JOINT LeftForeArm
						{
							OFFSET 31.271999 0.000000 0.000000
							CHANNELS 3 Xrotation Yrotation Zrotation
							JOINT LeftHand
							{
								OFFSET 31.771030 0.000000 0.000000
								CHANNELS 3 Xrotation Yrotation Zrotation
								JOINT LeftHandThumb1
								{
									OFFSET 2.886520 -2.557846 4.416640
									CHANNELS 3 Xrotation Yrotation Zrotation
									JOINT LeftHandThumb2
									{
										OFFSET 2.371025 -1.368912 1.368911
										CHANNELS 3 Xrotation Yrotation Zrotation
										JOINT LeftHandThumb3
										{
											OFFSET 2.243378 -1.295212 1.295213
											CHANNELS 3 Xrotation Yrotation Zrotation
											End Site
											{
												OFFSET -0.332611 2.876945 0.020015
											}
										}
									}
								}
								JOINT LeftHandIndex1
								{
									OFFSET 8.568985 -0.641945 3.119977
									CHANNELS 3 Xrotation Yrotation Zrotation
									JOINT LeftHandIndex2
									{
										OFFSET 3.348503 0.000000 0.000000
										CHANNELS 3 Xrotation Yrotation Zrotation
										JOINT LeftHandIndex3
										{
											OFFSET 3.314552 0.000000 0.000000
											CHANNELS 3 Xrotation Yrotation Zrotation
											End Site
											{
												OFFSET -1.032898 3.075485 0.678796
											}
										}
									}
								}
								JOINT LeftHandMiddle1
								{
									OFFSET 8.124603 0.000000 0.000000
									CHANNELS 3 Xrotation Yrotation Zrotation
									JOINT LeftHandMiddle2
									{
										OFFSET 4.166275 0.000000 0.000000
										CHANNELS 3 Xrotation Yrotation Zrotation
										JOINT LeftHandMiddle3
										{
											OFFSET 3.018135 0.000000 0.000000
											CHANNELS 3 Xrotation Yrotation Zrotation
											End Site
											{
												OFFSET -1.032700 2.767982 0.617226
											}
										}
									}
								}
								JOINT LeftHandRing1
								{
									OFFSET 8.571686 -0.031357 -2.884048
									CHANNELS 3 Xrotation Yrotation Zrotation
									JOINT LeftHandRing2
									{
										OFFSET 3.671181 0.000000 0.000000
										CHANNELS 3 Xrotation Yrotation Zrotation
										JOINT LeftHandRing3
										{
											OFFSET 2.728851 0.000000 0.000000
											CHANNELS 3 Xrotation Yrotation Zrotation
											End Site
											{
												OFFSET -0.815796 2.539223 0.577389
											}
										}
									}
								}
								JOINT LeftHandPinky1
								{
									OFFSET 7.854515 -0.675232 -5.213020
									CHANNELS 3 Xrotation Yrotation Zrotation
									JOINT LeftHandPinky2
									{
										OFFSET 3.068596 0.000000 0.000000
										CHANNELS 3 Xrotation Yrotation Zrotation
										JOINT LeftHandPinky3
										{
											OFFSET 2.396042 0.000000 0.000000
											CHANNELS 3 Xrotation Yrotation Zrotation
											End Site
											{
												OFFSET -0.524597 2.267998 0.567429
											}
										}
									}
								}
							}
							JOINT LeftSleeve
							{
								OFFSET 19.684509 -0.200119 0.476146
								CHANNELS 3 Xrotation Yrotation Zrotation
								End Site
								{
									OFFSET -0.031017 25.731133 -0.002868
								}
							}
						}
					}
				}
				JOINT RightShoulder
				{
					OFFSET -4.395900 7.341202 -1.870200
					CHANNELS 3 Xrotation Yrotation Zrotation
					JOINT RightArm
					{
						OFFSET -8.071453 0.936867 -2.181100
						CHANNELS 3 Xrotation Yrotation Zrotation
						JOINT RightForeArm
						{
							OFFSET -31.272011 0.000000 0.000000
							CHANNELS 3 Xrotation Yrotation Zrotation
							JOINT RightHand
							{
								OFFSET -31.771019 0.000000 0.000000
								CHANNELS 3 Xrotation Yrotation Zrotation
								JOINT RightHandThumb1
								{
									OFFSET -2.886520 -2.557808 4.416626
									CHANNELS 3 Xrotation Yrotation Zrotation
									JOINT RightHandThumb2
									{
										OFFSET -2.371056 -1.368927 1.368928
										CHANNELS 3 Xrotation Yrotation Zrotation
										JOINT RightHandThumb3
										{
											OFFSET -2.243362 -1.295204 1.295206
											CHANNELS 3 Xrotation Yrotation Zrotation
											End Site
											{
												OFFSET 0.332642 2.876938 0.020047
											}
										}
									}
								}
								JOINT RightHandIndex1
								{
									OFFSET -8.568993 -0.641953 3.120017
									CHANNELS 3 Xrotation Yrotation Zrotation
									JOINT RightHandIndex2
									{
										OFFSET -3.348518 0.000000 0.000000
										CHANNELS 3 Xrotation Yrotation Zrotation
										JOINT RightHandIndex3
										{
											OFFSET -3.314552 0.000000 0.000000
											CHANNELS 3 Xrotation Yrotation Zrotation
											End Site
											{
												OFFSET 1.032898 3.075478 0.678804
											}
										}
									}
								}
								JOINT RightHandMiddle1
								{
									OFFSET -8.124588 0.000000 0.000000
									CHANNELS 3 Xrotation Yrotation Zrotation
									JOINT RightHandMiddle2
									{
										OFFSET -4.166275 0.000000 0.000000
										CHANNELS 3 Xrotation Yrotation Zrotation
										JOINT RightHandMiddle3
										{
											OFFSET -3.018097 0.000000 0.000000
											CHANNELS 3 Xrotation Yrotation Zrotation
											End Site
											{
												OFFSET 1.032700 2.767937 0.617197
											}
										}
									}
								}
								JOINT RightHandRing1
								{
									OFFSET -8.571747 -0.031349 -2.884061
									CHANNELS 3 Xrotation Yrotation Zrotation
									JOINT RightHandRing2
									{
										OFFSET -3.671204 0.000000 0.000000
										CHANNELS 3 Xrotation Yrotation Zrotation
										JOINT RightHandRing3
										{
											OFFSET -2.728874 0.000000 0.000000
											CHANNELS 3 Xrotation Yrotation Zrotation
											End Site
											{
												OFFSET 0.815804 2.539261 0.577413
											}
										}
									}
								}
								JOINT RightHandPinky1
								{
									OFFSET -7.854561 -0.675247 -5.212970
									CHANNELS 3 Xrotation Yrotation Zrotation
									JOINT RightHandPinky2
									{
										OFFSET -3.068550 0.000000 0.000000
										CHANNELS 3 Xrotation Yrotation Zrotation
										JOINT RightHandPinky3
										{
											OFFSET -2.395981 0.000000 0.000000
											CHANNELS 3 Xrotation Yrotation Zrotation
											End Site
											{
												OFFSET 0.524605 2.267952 0.567413
											}
										}
									}
								}
							}
							JOINT RightSleeve
							{
								OFFSET -19.684753 -0.200165 0.476065
								CHANNELS 3 Xrotation Yrotation Zrotation
								End Site
								{
									OFFSET 0.031342 25.731255 -0.002917
								}
							}
						}
					}
				}
				JOINT Hood
				{
					OFFSET 0.369700 14.447800 -5.317800
					CHANNELS 3 Xrotation Yrotation Zrotation
					JOINT Hood1
					{
						OFFSET 0.001700 -5.553802 -5.895100
						CHANNELS 3 Xrotation Yrotation Zrotation
						JOINT Hood2
						{
							OFFSET -0.000200 -8.380501 0.763600
							CHANNELS 3 Xrotation Yrotation Zrotation
							End Site
							{
								OFFSET 0.000000 8.415215 0.000000
							}
						}
					}
				}
				JOINT Left_Breast
				{
					OFFSET 5.682500 3.120102 3.188800
					CHANNELS 3 Xrotation Yrotation Zrotation
					End Site
					{
						OFFSET 0.000000 10.528564 0.000000
					}
				}
				JOINT Right_Breast
				{
					OFFSET -4.947600 3.120102 3.185900
					CHANNELS 3 Xrotation Yrotation Zrotation
					End Site
					{
						OFFSET 0.000000 10.528564 0.000000
					}
				}
				JOINT Whistle
				{
					OFFSET 0.368200 11.471298 0.095400
					CHANNELS 3 Xrotation Yrotation Zrotation
					JOINT Whistle1
					{
						OFFSET -0.002000 -6.349899 7.479800
						CHANNELS 3 Xrotation Yrotation Zrotation
						JOINT Whistle2
						{
							OFFSET -0.001300 -8.217598 4.717600
							CHANNELS 3 Xrotation Yrotation Zrotation
							End Site
							{
								OFFSET 0.000000 9.475479 0.000000
							}
						}
					}
				}
			}
		}
		JOINT Belly
		{
			OFFSET 0.212400 1.593002 3.163700
			CHANNELS 3 Xrotation Yrotation Zrotation
			End Site
			{
				OFFSET 0.000000 7.496635 0.000000
			}
		}
	}
	JOINT FitGrandmaFacialAnim_Joint
	{
		OFFSET 1.150000 -86.211197 -1.220100
		CHANNELS 3 Xrotation Yrotation Zrotation
		End Site
		{
			OFFSET 0.000000 31.666618 0.000000
		}
	}
}
MOTION
Frames: 4
Frame Time: 0.016667
-3.112710 73.381165 4.265232 19.365774 -43.440741 5.680185 -0.000002 -0.000004 0.000001 -68.627651 -8.907829 16.728465 49.397496 -8.359410 4.775889 12.563272 -0.812066 -11.894204 -0.000000 0.000001 -0.000000 -0.000000 0.000001 0.000002 0.000002 0.000002 0.000003 -33.448977 -9.192938 -14.106274 57.331884 -7.679427 3.834566 -24.973675 -22.007351 20.483319 0.000000 0.000000 -0.000000 -0.000002 0.000001 -0.000001 -0.000000 -0.000003 0.000001 0.715249 6.211994 0.215449 -1.588676 4.492985 -2.192220 -1.597445 -0.195612 1.993553 12.118093 6.829910 -4.433333 -0.737342 20.027399 8.229671 -0.000001 0.000000 0.000000 -0.000001 0.000000 0.000000 -0.000001 0.000000 0.000000 -0.000001 0.000000 0.000000 -0.000001 0.000000 0.000000 -0.000001 0.000000 0.000000 -0.000001 0.000000 0.000000 -0.000001 0.000000 0.000000 -0.000001 0.000000 0.000000 -0.000001 0.000000 0.000000 -0.000001 0.000000 0.000000 -0.000001 0.000000 0.000000 -0.000001 0.000000 0.000000 -0.000001 0.000000 0.000000 -0.000001 0.000000 0.000000 -0.000001 0.000000 0.000000 -0.000001 0.000000 0.000000 -0.000001 0.000000 0.000000 -0.000001 0.000000 0.000000 3.544245 4.756009 -11.623017 -54.038835 -33.116418 -50.381528 -0.000160 -81.882357 -0.000137 -58.768409 25.992638 38.870347 -14.557452 10.837977 12.229967 0.749561 -4.257817 13.305509 -0.000001 -0.000001 0.000001 -0.809522 2.578140 -31.496437 3.095880 5.163749 -61.866966 0.000000 0.000000 0.000001 -2.430836 1.729202 -41.460925 2.952350 5.084708 -60.259931 0.000000 -0.000002 -0.000002 -6.054114 -0.166590 -49.857584 3.046259 5.137068 -61.313946 0.000000 0.000001 -0.000001 -8.298281 -6.522675 -38.520156 2.848773 5.024361 -59.084435 -0.000001 0.000000 0.000000 -0.000002 -0.000001 0.000002 -14.733700 2.115971 -4.463086 72.337564 138.834059 -52.653519 -0.000005 29.080698 0.000013 -49.752467 -7.371319 -31.498783 8.377127 -4.904139 11.021992 21.620195 -18.183903 -18.379196 -0.000000 -0.000001 -0.000002 0.558923 -4.406576 25.436661 1.653037 -3.560357 49.799094 -0.000002 0.000001 -0.000002 10.969813 -12.875549 52.800835 6.387584 -4.324413 111.833679 -0.000001 -0.000001 0.000002 3.705083 -7.151324 57.622433 5.328210 -4.608684 98.293423 -0.000001 0.000000 -0.000003 0.474829 -5.173002 58.987658 3.194301 -4.421906 71.674154 -0.000003 0.000001 -0.000003 -0.000000 -0.000000 -0.000001 0.000001 -0.000000 -0.000000 0.000001 -0.000000 -0.000000 0.000001 -0.000000 -0.000000 0.000001 -0.000000 -0.000000 0.000001 -0.000000 -0.000000 0.000001 -0.000000 -0.000000 0.000001 -0.000002 0.000000 0.000001 -0.000002 0.000000 0.000003 -0.000001 -0.000000 -0.000002 -0.000004 0.000001 
-3.080436 74.120728 1.222893 20.227078 -43.389706 6.417347 -0.000000 0.000001 -0.000000 -70.361385 -6.633759 14.664503 56.098615 -9.500120 2.611695 7.301929 -0.267176 -13.441073 -0.000000 -0.000002 -0.000000 -0.000001 -0.000000 0.000000 -0.000001 0.000001 0.000000 -36.104387 -9.368423 -12.629941 57.655737 -8.453114 5.156859 -24.758591 -21.672137 17.205689 -0.000000 -0.000000 0.000000 0.000000 0.000000 0.000001 -0.000000 0.000000 0.000001 0.985516 6.147868 0.342930 -1.410113 4.462638 -2.203675 -1.413476 -0.229858 1.985882 11.799614 6.804073 -4.313537 -1.333359 19.778525 8.281248 -0.000000 0.000000 -0.000000 -0.000000 0.000000 -0.000000 -0.000000 0.000000 -0.000000 -0.000000 0.000000 -0.000000 -0.000000 0.000000 -0.000000 -0.000000 0.000000 -0.000000 -0.000000 0.000000 -0.000000 -0.000000 0.000000 -0.000000 -0.000000 0.000000 -0.000000 -0.000000 0.000000 -0.000000 -0.000000 0.000000 -0.000000 -0.000000 0.000000 -0.000000 -0.000000 0.000000 -0.000000 -0.000000 0.000000 -0.000000 -0.000000 0.000000 -0.000000 -0.000000 0.000000 -0.000000 -0.000000 0.000000 -0.000000 -0.000000 0.000000 -0.000000 -0.000000 0.000000 -0.000000 3.460879 4.416663 -11.409038 -54.824603 -33.117760 -50.523411 0.000263 -81.497059 0.000293 -58.132327 25.445117 38.283989 -14.557452 10.837976 12.229968 0.749565 -4.257817 13.305509 0.000000 -0.000001 -0.000000 -0.809523 2.578142 -31.496441 3.095881 5.163749 -61.866959 -0.000001 -0.000000 0.000004 -2.430840 1.729202 -41.460922 2.952346 5.084710 -60.259931 0.000000 0.000000 -0.000003 -6.054116 -0.166586 -49.857584 3.046254 5.137068 -61.313952 0.000002 0.000003 -0.000004 -8.298282 -6.522674 -38.520156 2.848774 5.024364 -59.084442 -0.000001 -0.000002 0.000001 0.000003 0.000001 -0.000001 -14.724952 2.110613 -4.402640 72.361995 139.310587 -53.074610 0.000011 28.936916 -0.000006 -48.762421 -6.817487 -31.328558 8.377125 -4.904141 11.021991 21.620192 -18.183897 -18.379197 -0.000001 0.000002 -0.000000 0.558921 -4.406575 25.436658 1.653039 -3.560356 49.799094 -0.000002 0.000000 -0.000002 10.969812 -12.875548 52.800835 6.387584 -4.324412 111.833686 -0.000000 0.000000 -0.000004 3.705083 -7.151325 57.622433 5.328209 -4.608681 98.293423 0.000001 -0.000002 0.000001 0.474831 -5.173001 58.987672 3.194303 -4.421909 71.674154 -0.000003 0.000000 -0.000001 -0.000001 0.000001 -0.000000 -0.000000 -0.000001 -0.000000 -0.000000 -0.000001 -0.000000 -0.000000 -0.000001 -0.000000 -0.000000 -0.000001 -0.000000 -0.000000 -0.000001 -0.000000 -0.000000 -0.000001 -0.000000 -0.000000 0.000001 -0.000001 -0.000000 0.000001 -0.000001 0.000000 -0.000002 0.000001 -0.000000 0.000001 -0.000000 
-3.023655 74.883247 -1.716490 21.497322 -43.898944 7.438321 -0.000000 -0.000000 -0.000001 -71.047232 -4.063216 12.860524 60.973713 -10.637732 0.859426 3.802529 -1.103185 -15.717136 0.000002 -0.000002 0.000000 0.000000 0.000001 0.000000 0.000000 0.000000 0.000001 -38.799071 -9.778017 -11.452845 57.285667 -8.970608 6.754269 -23.947661 -20.078770 13.688744 -0.000000 0.000000 -0.000000 -0.000000 0.000003 -0.000001 0.000001 -0.000003 0.000001 1.118454 6.466034 0.435701 -1.310866 4.621463 -2.233292 -1.314413 -0.079137 1.955557 11.539365 6.719173 -4.205104 -1.771494 19.427324 8.399851 -0.000001 -0.000000 -0.000000 -0.000001 -0.000000 -0.000000 -0.000001 -0.000000 -0.000000 -0.000001 -0.000000 -0.000000 -0.000001 -0.000000 -0.000000 -0.000001 -0.000000 -0.000000 -0.000001 -0.000000 -0.000000 -0.000001 -0.000000 -0.000000 -0.000001 -0.000000 -0.000000 -0.000001 -0.000000 -0.000000 -0.000001 -0.000000 -0.000000 -0.000001 -0.000000 -0.000000 -0.000001 -0.000000 -0.000000 -0.000001 -0.000000 -0.000000 -0.000001 -0.000000 -0.000000 -0.000001 -0.000000 -0.000000 -0.000001 -0.000000 -0.000000 -0.000001 -0.000000 -0.000000 -0.000001 -0.000000 -0.000000 3.451685 4.257294 -11.406559 -55.761541 -33.679321 -50.844857 0.000097 -80.674192 0.000108 -57.419276 24.773832 37.437974 -14.557450 10.837976 12.229967 0.749559 -4.257815 13.305508 0.000000 0.000002 -0.000000 -0.809522 2.578141 -31.496437 3.095879 5.163749 -61.866966 0.000000 0.000000 -0.000003 -2.430837 1.729202 -41.460922 2.952348 5.084710 -60.259931 -0.000000 -0.000003 -0.000000 -6.054110 -0.166589 -49.857584 3.046261 5.137069 -61.313952 -0.000000 0.000000 -0.000002 -8.298285 -6.522673 -38.520153 2.848768 5.024364 -59.084435 -0.000002 0.000000 -0.000001 0.000000 -0.000004 0.000004 -14.702146 2.142277 -4.298177 72.738660 139.648982 -53.739017 -0.000022 28.981988 0.000018 -47.783426 -6.248432 -31.304174 8.377125 -4.904141 11.021988 21.620195 -18.183900 -18.379194 0.000003 -0.000001 -0.000001 0.558921 -4.406576 25.436658 1.653039 -3.560356 49.799097 -0.000001 -0.000001 0.000003 10.969812 -12.875550 52.800835 6.387585 -4.324412 111.833679 0.000001 0.000002 -0.000007 3.705083 -7.151325 57.622426 5.328211 -4.608679 98.293423 -0.000000 -0.000002 0.000003 0.474829 -5.173002 58.987665 3.194301 -4.421910 71.674154 -0.000000 0.000001 -0.000003 -0.000000 0.000000 -0.000002 -0.000000 -0.000001 -0.000000 -0.000000 -0.000001 -0.000000 -0.000000 -0.000001 -0.000000 -0.000000 -0.000001 -0.000000 -0.000000 -0.000001 -0.000000 -0.000001 -0.000001 -0.000000 -0.000001 -0.000002 -0.000000 -0.000001 -0.000002 -0.000000 0.000002 -0.000002 0.000001 -0.000000 -0.000000 -0.000001 
-2.958241 75.578171 -4.549253 23.150825 -44.895250 8.659397 0.000000 -0.000000 0.000001 -71.016441 -1.533756 11.207082 64.263713 -10.502756 -0.534534 1.886102 -4.416881 -17.435451 -0.000000 -0.000000 0.000001 -0.000002 -0.000001 -0.000000 -0.000001 0.000000 0.000000 -41.276438 -10.525351 -10.509271 56.305464 -9.369222 8.610036 -22.679898 -16.902415 10.399614 0.000000 0.000000 0.000000 -0.000002 0.000000 -0.000000 0.000000 -0.000003 -0.000001 1.114930 7.101118 0.552970 -1.289599 4.928866 -2.265302 -1.295695 0.217596 1.919090 11.325050 6.588891 -4.114611 -2.085923 19.014982 8.543329 0.000001 -0.000000 0.000002 0.000001 -0.000000 0.000002 0.000001 -0.000000 0.000002 0.000001 -0.000000 0.000002 0.000001 -0.000000 0.000002 0.000001 -0.000000 0.000002 0.000001 -0.000000 0.000002 0.000001 -0.000000 0.000002 0.000001 -0.000000 0.000002 0.000001 -0.000000 0.000002 0.000001 -0.000000 0.000002 0.000001 -0.000000 0.000002 0.000001 -0.000000 0.000002 0.000001 -0.000000 0.000002 0.000001 -0.000000 0.000002 0.000001 -0.000000 0.000002 0.000001 -0.000000 0.000002 0.000001 -0.000000 0.000002 0.000001 -0.000000 0.000002 3.505655 4.264400 -11.583823 -56.751851 -34.575510 -51.320836 -0.000289 -79.627629 -0.000283 -56.773205 24.062606 36.543377 -14.557450 10.837981 12.229964 0.749559 -4.257816 13.305507 0.000001 -0.000001 -0.000001 -0.809522 2.578141 -31.496437 3.095877 5.163749 -61.866966 0.000000 0.000001 0.000002 -2.430841 1.729203 -41.460922 2.952347 5.084708 -60.259931 0.000001 -0.000003 -0.000004 -6.054112 -0.166588 -49.857584 3.046259 5.137070 -61.313952 0.000000 0.000000 -0.000002 -8.298283 -6.522674 -38.520156 2.848772 5.024365 -59.084435 -0.000000 0.000000 -0.000001 0.000003 0.000001 -0.000003 -14.671332 2.216718 -4.184593 73.273709 139.812948 -54.505371 -0.000003 29.166137 -0.000004 -46.933549 -5.789906 -31.371769 8.377125 -4.904142 11.021993 21.620197 -18.183903 -18.379194 0.000004 0.000002 0.000000 0.558919 -4.406576 25.436659 1.653041 -3.560357 49.799094 -0.000001 0.000001 0.000001 10.969811 -12.875552 52.800832 6.387586 -4.324412 111.833672 0.000001 0.000000 -0.000002 3.705083 -7.151324 57.622433 5.328209 -4.608680 98.293423 -0.000000 -0.000001 0.000001 0.474830 -5.173003 58.987665 3.194301 -4.421911 71.674154 -0.000001 0.000000 -0.000000 -0.000002 0.000000 -0.000001 0.000000 0.000001 0.000000 0.000000 0.000001 0.000000 0.000000 0.000001 0.000000 0.000000 0.000001 0.000000 0.000000 0.000001 0.000000 0.000000 0.000001 0.000000 0.000000 -0.000003 0.000001 0.000000 -0.000003 0.000001 0.000001 0.000000 0.000000 0.000000 -0.000000 0.000001 
